<svg width="38" height="82" viewBox="0 0 38 82" fill="none" xmlns="http://www.w3.org/2000/svg">
<path d="M16.2667 11.3969C14.4 13.2636 15.2 23.9303 17.3333 24.7303C20.9333 26.1969 23.4667 22.5969 23.0667 16.7303C22.8 12.4636 22.1333 11.1303 20 10.8636C18.4 10.5969 16.8 10.8636 16.2667 11.3969ZM20.6667 18.0636C20.6667 22.3303 20.1333 23.9303 19.0667 23.6636C17.2 22.9969 16 16.8636 17.2 13.7969C18.6667 9.79694 20.6667 12.1969 20.6667 18.0636Z" fill="black"/>
<path d="M9.06667 2.59693C1.86667 6.99693 0 12.0636 0 27.9303C0 43.7969 1.86667 48.8636 9.06667 53.2636C14.1333 56.4636 23.2 56.7303 28.6667 53.9303C36 50.0636 38 44.7303 38 27.9303C38 11.1303 36 5.79693 28.6667 1.93026C23.2 -0.869738 14.1333 -0.603071 9.06667 2.59693ZM26.9333 3.53026C34.8 7.2636 36.6667 11.7969 36.6667 27.7969C36.6667 39.2636 36.2667 42.3303 34 45.9303C31.2 50.4636 24.2667 54.5969 19.4667 54.5969C14.1333 54.5969 7.46667 50.8636 4.66667 46.3303C0.8 39.9303 0.8 15.9303 4.66667 9.53026C9.33333 1.93026 18.5333 -0.603071 26.9333 3.53026Z" fill="black"/>
<path d="M0.666626 59.2636C0.666626 59.5303 4.79996 63.1303 9.99996 67.2636L19.2 74.8636L28.6666 67.1303C33.8666 62.9969 37.7333 59.2636 37.4666 58.8636C37.0666 58.4636 32.9333 61.2636 28.4 65.1303C23.7333 68.8636 19.7333 71.9303 19.3333 71.9303C18.9333 71.9303 14.9333 68.8636 10.4 65.2636C2.66663 58.9969 0.666626 57.7969 0.666626 59.2636Z" fill="black"/>
<path d="M0.800061 66.0636C1.46673 67.9303 17.4667 81.2636 19.0667 81.2636C20.6667 81.2636 37.2001 68.0636 37.8667 66.3303C38.5334 64.1969 35.7334 66.1969 27.2001 73.5303L19.6001 79.9303L11.8667 73.6636C0.133394 64.3303 0.133394 64.3303 0.800061 66.0636Z" fill="black"/>
</svg>
